<svg width="283" height="331" viewBox="0 0 283 331" fill="none" xmlns="http://www.w3.org/2000/svg">
<path d="M192.982 18.1315L173.463 15.4015L191.754 0.113494H194.62L205.677 68.0905L201.309 69.1825L169.777 21.9535L182.881 37.651C175.055 29.643 167.457 24.0465 160.086 20.8615C152.715 17.5855 145.253 15.9475 137.7 15.9475C126.78 15.9475 118.999 18.4045 114.358 23.3185C109.717 28.1415 107.397 34.3295 107.397 41.8825C107.397 47.3425 108.716 51.938 111.355 55.669C114.085 59.4 117.771 62.585 122.412 65.224C127.144 67.772 132.513 70.0925 138.519 72.1855C144.525 74.1875 150.849 76.2805 157.492 78.4645C164.135 80.7395 170.733 83.3785 177.285 86.3815C183.928 89.2935 189.979 93.07 195.439 97.711C200.899 102.261 205.267 107.994 208.543 114.91C211.91 121.735 213.594 130.243 213.594 140.435C213.594 154.54 209.772 166.689 202.128 176.881C194.484 187.073 184.292 194.944 171.552 200.496C158.812 205.956 144.661 208.686 129.1 208.686C119.181 208.686 110.081 208.094 101.8 206.911C93.5194 205.819 84.8289 203.59 75.7289 200.222L64.9454 143.848H69.4499L108.352 201.86L82.6904 185.071C91.0624 189.621 98.6609 193.124 105.486 195.581C112.402 197.947 119.545 199.13 126.916 199.13C138.109 199.13 147.118 197.583 153.943 194.489C160.859 191.395 165.91 187.164 169.095 181.795C172.371 176.426 174.009 170.283 174.009 163.367C174.009 156.269 172.371 150.445 169.095 145.895C165.91 141.254 161.587 137.432 156.127 134.429C150.758 131.426 144.843 128.833 138.382 126.649C131.921 124.374 125.415 122.053 118.863 119.688C112.311 117.321 106.032 114.728 100.026 111.907C94.1109 108.995 88.8329 105.491 84.1919 101.396C79.6419 97.3015 76.0019 92.2965 73.2719 86.3815C70.6329 80.3755 69.3134 73.141 69.3134 64.678C69.3134 52.666 72.3619 42.292 78.4589 33.556C84.6469 24.82 93.3374 18.086 104.53 13.354C115.814 8.531 128.964 6.1195 143.979 6.1195C153.352 6.1195 161.815 7.07499 169.368 8.98599C176.921 10.897 184.792 13.9455 192.982 18.1315Z" fill="url(#paint0_linear_102_2)"/>
<path d="M24.763 266.67C21.235 266.67 17.518 266.292 13.612 265.536C9.83197 264.906 6.61897 263.835 3.97297 262.323C1.32697 260.811 0.00397264 258.858 0.00397264 256.464C0.00397264 256.212 0.192973 255.897 0.570973 255.519C0.822973 255.015 1.07497 254.952 1.32697 255.33C2.96497 257.094 5.16997 258.543 7.94197 259.677C10.84 260.685 13.864 261.378 17.014 261.756C20.29 262.26 23.314 262.512 26.086 262.512C31.882 262.512 37.174 261.756 41.962 260.244C46.876 258.606 50.782 256.212 53.68 253.062C56.578 249.786 58.027 245.754 58.027 240.966C58.027 236.808 56.704 233.028 54.058 229.626C51.412 226.098 48.136 222.633 44.23 219.231C40.45 215.703 36.607 212.049 32.701 208.269C28.921 204.489 25.708 200.331 23.062 195.795C20.416 191.133 19.093 185.778 19.093 179.73C19.093 175.068 20.353 170.721 22.873 166.689C25.519 162.531 28.984 158.877 33.268 155.727C37.678 152.577 42.466 150.12 47.632 148.356C52.798 146.592 57.964 145.71 63.13 145.71C69.178 145.71 73.714 146.844 76.738 149.112C79.762 151.38 81.274 155.538 81.274 161.586C81.274 165.24 80.518 168.705 79.006 171.981C77.494 175.131 75.478 176.706 72.958 176.706C72.454 176.706 71.95 176.517 71.446 176.139C70.942 175.635 70.753 174.942 70.879 174.06C71.131 171.54 71.383 169.209 71.635 167.067C71.887 164.925 72.013 163.035 72.013 161.397C72.013 157.365 71.32 154.341 69.934 152.325C68.674 150.183 66.217 149.112 62.563 149.112C56.893 149.112 51.412 150.435 46.12 153.081C40.954 155.601 36.67 159.129 33.268 163.665C29.866 168.075 28.165 173.052 28.165 178.596C28.165 182.88 29.488 186.975 32.134 190.881C34.78 194.787 37.993 198.567 41.773 202.221C45.679 205.875 49.585 209.592 53.491 213.372C57.397 217.026 60.673 220.806 63.319 224.712C65.965 228.618 67.288 232.776 67.288 237.186C67.288 243.99 65.146 249.597 60.862 254.007C56.578 258.291 51.16 261.441 44.608 263.457C38.182 265.599 31.567 266.67 24.763 266.67ZM126.098 262.323C122.57 262.323 119.924 261.063 118.16 258.543C116.396 256.023 115.199 253.125 114.569 249.849C114.065 246.447 113.813 243.423 113.813 240.777C113.813 238.131 113.939 235.548 114.191 233.028C114.569 230.382 114.947 227.799 115.325 225.279C114.065 226.917 112.301 229.248 110.033 232.272C107.765 235.17 105.182 238.383 102.284 241.911C99.386 245.313 96.425 248.589 93.401 251.739C90.377 254.763 87.416 257.283 84.518 259.299C81.746 261.189 79.352 262.134 77.336 262.134C75.572 262.134 74.438 261.315 73.934 259.677C73.556 258.039 73.367 256.59 73.367 255.33C73.367 249.66 74.501 243.675 76.769 237.375C79.037 231.075 81.368 225.405 83.762 220.365C84.392 218.979 85.337 217.089 86.597 214.695C87.857 212.301 89.306 209.844 90.944 207.324C92.708 204.804 94.535 202.725 96.425 201.087C98.315 199.449 100.205 198.756 102.095 199.008C103.481 198.126 104.804 197.37 106.064 196.74C107.45 195.984 108.962 195.606 110.6 195.606C111.608 195.606 113.246 195.921 115.514 196.551C117.908 197.181 119.609 197.622 120.617 197.874C121.121 196.866 121.877 196.11 122.885 195.606C123.893 195.102 124.901 194.85 125.909 194.85C126.917 194.85 127.61 194.913 127.988 195.039C128.492 194.787 128.87 194.661 129.122 194.661C129.878 194.661 130.382 195.228 130.634 196.362C130.886 197.37 131.012 198.189 131.012 198.819C131.012 200.457 130.823 201.906 130.445 203.166C130.067 204.426 129.563 205.812 128.933 207.324C128.429 208.584 127.988 209.781 127.61 210.915C127.358 211.923 126.665 212.868 125.531 213.75C124.649 218.286 123.956 222.885 123.452 227.547C123.074 232.083 122.885 236.682 122.885 241.344C122.885 242.982 122.948 244.935 123.074 247.203C123.326 249.471 123.893 251.487 124.775 253.251C125.783 255.015 127.295 255.897 129.311 255.897C132.461 255.897 135.233 254.763 137.627 252.495C140.147 250.101 142.226 247.833 143.864 245.691C144.116 245.313 144.431 244.935 144.809 244.557C145.187 244.053 145.628 243.675 146.132 243.423L146.699 244.557C146.699 245.817 146.069 247.329 144.809 249.093C143.549 250.857 142.163 252.558 140.651 254.196C139.139 255.708 137.879 256.842 136.871 257.598C135.359 258.858 133.658 259.992 131.768 261C130.004 261.882 128.114 262.323 126.098 262.323ZM83.762 254.385C84.518 254.385 85.337 254.07 86.219 253.44C87.101 252.81 87.794 252.243 88.298 251.739C94.22 246.573 99.449 240.777 103.985 234.351C108.647 227.925 112.679 221.247 116.081 214.317C116.459 213.687 116.837 212.994 117.215 212.238C117.593 211.482 117.845 210.726 117.971 209.97C118.223 208.962 118.475 207.891 118.727 206.757C118.979 205.497 119.168 204.363 119.294 203.355C119.168 202.725 118.475 202.158 117.215 201.654C115.955 201.15 114.569 200.772 113.057 200.52C111.671 200.142 110.663 199.953 110.033 199.953C107.639 199.953 105.497 200.961 103.607 202.977C101.843 204.867 100.331 206.694 99.071 208.458C97.559 210.726 95.795 213.687 93.779 217.341C91.889 220.995 89.999 224.901 88.109 229.059C86.345 233.091 84.833 236.997 83.573 240.777C82.439 244.557 81.872 247.77 81.872 250.416C81.872 251.046 81.935 251.865 82.061 252.873C82.313 253.881 82.88 254.385 83.762 254.385ZM166.03 186.156C165.526 186.156 165.022 185.652 164.518 184.644C164.14 183.636 163.825 182.565 163.573 181.431C163.447 180.171 163.384 179.289 163.384 178.785C163.384 178.533 163.384 178.218 163.384 177.84C163.51 177.336 163.762 177.021 164.14 176.895C166.282 176.643 168.298 176.265 170.188 175.761C172.204 175.257 174.22 174.69 176.236 174.06C176.488 173.934 176.929 173.871 177.559 173.871C178.567 173.871 179.071 174.438 179.071 175.572C179.071 178.092 177.874 180.171 175.48 181.809C174.094 182.691 172.582 183.636 170.944 184.644C169.432 185.652 167.794 186.156 166.03 186.156ZM147.508 262.323C145.618 262.323 144.673 261.315 144.673 259.299C144.673 257.157 145.051 254.385 145.807 250.983C146.563 247.455 147.445 243.927 148.453 240.399C149.461 236.871 150.217 234.099 150.721 232.083C150.847 231.579 151.225 230.256 151.855 228.114C152.485 225.846 153.178 223.389 153.934 220.743C154.69 218.097 155.32 215.766 155.824 213.75C156.454 211.608 156.769 210.348 156.769 209.97C156.769 209.34 156.391 208.773 155.635 208.269C155.005 207.765 154.69 207.198 154.69 206.568C154.69 206.19 154.753 205.812 154.879 205.434C155.005 205.056 155.131 204.741 155.257 204.489C155.635 203.859 156.58 203.04 158.092 202.032C159.604 201.024 161.179 200.142 162.817 199.386C164.581 198.504 165.778 198.063 166.408 198.063C166.786 198.063 167.038 198.126 167.164 198.252C167.29 198.504 167.353 198.945 167.353 199.575C167.353 200.709 167.038 202.41 166.408 204.678C165.904 206.946 165.211 209.466 164.329 212.238C163.573 214.884 162.817 217.341 162.061 219.609C161.305 221.877 160.738 223.578 160.36 224.712C159.73 226.602 158.848 229.311 157.714 232.839C156.58 236.367 155.572 239.895 154.69 243.423C153.808 246.951 153.367 249.723 153.367 251.739C153.367 251.991 153.43 252.558 153.556 253.44C153.682 254.196 153.997 254.574 154.501 254.574C155.131 254.574 156.265 254.07 157.903 253.062C159.667 251.928 161.494 250.857 163.384 249.849C165.274 248.841 166.723 248.337 167.731 248.337C168.235 248.337 168.55 248.463 168.676 248.715C168.676 249.219 167.857 250.101 166.219 251.361C164.581 252.495 162.817 253.692 160.927 254.952C159.163 256.086 157.966 256.968 157.336 257.598C156.076 258.732 154.564 259.803 152.8 260.811C151.036 261.819 149.272 262.323 147.508 262.323ZM182.207 260.811C181.073 260.811 180.065 260.496 179.183 259.866C178.427 259.236 178.049 258.291 178.049 257.031C178.049 255.267 178.175 253.062 178.427 250.416C178.679 247.77 178.931 245.502 179.183 243.612C180.191 237.564 181.325 231.516 182.585 225.468C183.971 219.294 185.483 213.246 187.121 207.324C188.633 201.528 190.397 195.417 192.413 188.991C194.429 182.439 196.886 176.076 199.784 169.902C202.682 163.728 206.21 158.184 210.368 153.27C214.652 148.23 219.755 144.387 225.677 141.741C227.189 141.111 228.764 140.607 230.402 140.229C232.04 139.725 233.678 139.473 235.316 139.473C236.828 139.473 238.592 139.788 240.608 140.418C242.75 141.048 244.577 141.993 246.089 143.253C247.601 144.387 248.357 145.899 248.357 147.789C248.357 148.545 248.168 149.112 247.79 149.49C247.538 149.868 246.53 150.687 244.766 151.947C243.128 153.081 242.183 153.711 241.931 153.837C241.679 153.585 241.553 153.396 241.553 153.27C241.553 152.892 241.742 152.514 242.12 152.136C242.498 151.758 242.687 151.317 242.687 150.813C242.687 149.553 241.994 148.419 240.608 147.411C239.222 146.277 237.647 145.395 235.883 144.765C234.119 144.009 232.67 143.631 231.536 143.631C227.378 143.631 223.535 145.395 220.007 148.923C216.605 152.451 213.518 156.987 210.746 162.531C207.974 167.949 205.517 173.745 203.375 179.919C201.233 185.967 199.406 191.7 197.894 197.118C196.382 202.536 195.185 206.883 194.303 210.159C193.295 213.813 192.224 217.908 191.09 222.444C189.956 226.98 188.948 231.579 188.066 236.241C187.31 240.777 186.932 244.998 186.932 248.904C186.932 250.038 187.121 251.235 187.499 252.495C188.003 253.629 188.948 254.196 190.334 254.196C192.224 254.196 194.177 253.566 196.193 252.306C198.335 251.046 200.351 249.597 202.241 247.959C204.257 246.195 205.958 244.683 207.344 243.423C208.856 242.163 209.864 241.533 210.368 241.533C210.62 241.533 210.746 241.659 210.746 241.911C210.746 242.793 210.494 243.675 209.99 244.557C209.486 245.439 208.919 246.195 208.289 246.825C206.651 248.463 204.32 250.416 201.296 252.684C198.272 254.826 195.059 256.716 191.657 258.354C188.255 259.992 185.105 260.811 182.207 260.811ZM262.311 262.323C258.783 262.323 256.137 261.063 254.373 258.543C252.609 256.023 251.412 253.125 250.782 249.849C250.278 246.447 250.026 243.423 250.026 240.777C250.026 238.131 250.152 235.548 250.404 233.028C250.782 230.382 251.16 227.799 251.538 225.279C250.278 226.917 248.514 229.248 246.246 232.272C243.978 235.17 241.395 238.383 238.497 241.911C235.599 245.313 232.638 248.589 229.614 251.739C226.59 254.763 223.629 257.283 220.731 259.299C217.959 261.189 215.565 262.134 213.549 262.134C211.785 262.134 210.651 261.315 210.147 259.677C209.769 258.039 209.58 256.59 209.58 255.33C209.58 249.66 210.714 243.675 212.982 237.375C215.25 231.075 217.581 225.405 219.975 220.365C220.605 218.979 221.55 217.089 222.81 214.695C224.07 212.301 225.519 209.844 227.157 207.324C228.921 204.804 230.748 202.725 232.638 201.087C234.528 199.449 236.418 198.756 238.308 199.008C239.694 198.126 241.017 197.37 242.277 196.74C243.663 195.984 245.175 195.606 246.813 195.606C247.821 195.606 249.459 195.921 251.727 196.551C254.121 197.181 255.822 197.622 256.83 197.874C257.334 196.866 258.09 196.11 259.098 195.606C260.106 195.102 261.114 194.85 262.122 194.85C263.13 194.85 263.823 194.913 264.201 195.039C264.705 194.787 265.083 194.661 265.335 194.661C266.091 194.661 266.595 195.228 266.847 196.362C267.099 197.37 267.225 198.189 267.225 198.819C267.225 200.457 267.036 201.906 266.658 203.166C266.28 204.426 265.776 205.812 265.146 207.324C264.642 208.584 264.201 209.781 263.823 210.915C263.571 211.923 262.878 212.868 261.744 213.75C260.862 218.286 260.169 222.885 259.665 227.547C259.287 232.083 259.098 236.682 259.098 241.344C259.098 242.982 259.161 244.935 259.287 247.203C259.539 249.471 260.106 251.487 260.988 253.251C261.996 255.015 263.508 255.897 265.524 255.897C268.674 255.897 271.446 254.763 273.84 252.495C276.36 250.101 278.439 247.833 280.077 245.691C280.329 245.313 280.644 244.935 281.022 244.557C281.4 244.053 281.841 243.675 282.345 243.423L282.912 244.557C282.912 245.817 282.282 247.329 281.022 249.093C279.762 250.857 278.376 252.558 276.864 254.196C275.352 255.708 274.092 256.842 273.084 257.598C271.572 258.858 269.871 259.992 267.981 261C266.217 261.882 264.327 262.323 262.311 262.323ZM219.975 254.385C220.731 254.385 221.55 254.07 222.432 253.44C223.314 252.81 224.007 252.243 224.511 251.739C230.433 246.573 235.662 240.777 240.198 234.351C244.86 227.925 248.892 221.247 252.294 214.317C252.672 213.687 253.05 212.994 253.428 212.238C253.806 211.482 254.058 210.726 254.184 209.97C254.436 208.962 254.688 207.891 254.94 206.757C255.192 205.497 255.381 204.363 255.507 203.355C255.381 202.725 254.688 202.158 253.428 201.654C252.168 201.15 250.782 200.772 249.27 200.52C247.884 200.142 246.876 199.953 246.246 199.953C243.852 199.953 241.71 200.961 239.82 202.977C238.056 204.867 236.544 206.694 235.284 208.458C233.772 210.726 232.008 213.687 229.992 217.341C228.102 220.995 226.212 224.901 224.322 229.059C222.558 233.091 221.046 236.997 219.786 240.777C218.652 244.557 218.085 247.77 218.085 250.416C218.085 251.046 218.148 251.865 218.274 252.873C218.526 253.881 219.093 254.385 219.975 254.385Z" fill="#212121"/>
<defs>
<linearGradient id="paint0_linear_102_2" x1="139.5" y1="4" x2="139.5" y2="277" gradientUnits="userSpaceOnUse">
<stop stop-color="#D6A649"/>
<stop offset="1" stop-color="#90720B"/>
</linearGradient>
</defs>
</svg>
